<svg width="1548" height="1348" viewBox="0 0 1548 1348" fill="none" xmlns="http://www.w3.org/2000/svg">
<rect x="2" y="1202" width="272" height="48" rx="3" fill="white"/>
<rect x="2" y="1202" width="272" height="48" rx="3" stroke="#1E1E1E" stroke-width="4" stroke-linecap="round"/>
    <text id="participant_2" data-next="winner_1" x="113" y="1230" font-family="Arial" font-size="16" fill="black" text-anchor="middle">Команда 2</text>

<rect x="314" y="1250" width="272" height="48" rx="3" fill="white"/>
<rect x="314" y="1250" width="272" height="48" rx="3" stroke="#1E1E1E" stroke-width="4" stroke-linecap="round"/>
    <text id="winner_1" data-next="winner_8" x="425" y="1278" font-family="Arial" font-size="16" fill="black" text-anchor="middle"></text>

<path d="M282 1226V1226C288.627 1226 294 1231.37 294 1238V1262C294 1268.63 299.373 1274 306 1274V1274" stroke="#1E1E1E" stroke-width="4" stroke-linecap="round" stroke-linejoin="bevel"/>
<rect x="2" y="1298" width="272" height="48" rx="3" fill="white"/>
<rect x="2" y="1298" width="272" height="48" rx="3" stroke="#1E1E1E" stroke-width="4" stroke-linecap="round"/>
    <text id="participant_1" data-next="winner_1" x="113" y="1326" font-family="Arial" font-size="16" fill="black" text-anchor="middle">Команда 1</text>

<path d="M282 1322V1322C288.627 1322 294 1316.63 294 1310V1286C294 1279.37 299.373 1274 306 1274V1274" stroke="#1E1E1E" stroke-width="4" stroke-linecap="round" stroke-linejoin="bevel"/>
<rect x="2" y="1010" width="272" height="48" rx="3" fill="white"/>
<rect x="2" y="1010" width="272" height="48" rx="3" stroke="#1E1E1E" stroke-width="4" stroke-linecap="round"/>
    <text id="participant_4" data-next="winner_2" x="113" y="1038" font-family="Arial" font-size="16" fill="black" text-anchor="middle">Команда 4</text>

<rect x="314" y="1058" width="272" height="48" rx="3" fill="white"/>
<rect x="314" y="1058" width="272" height="48" rx="3" stroke="#1E1E1E" stroke-width="4" stroke-linecap="round"/>
    <text id="winner_2" data-next="winner_8" x="425" y="1086" font-family="Arial" font-size="16" fill="black" text-anchor="middle"></text>

<path d="M282 1034V1034C288.627 1034 294 1039.37 294 1046V1070C294 1076.63 299.373 1082 306 1082V1082" stroke="#1E1E1E" stroke-width="4" stroke-linecap="round" stroke-linejoin="bevel"/>
<rect x="2" y="1106" width="272" height="48" rx="3" fill="white"/>
<rect x="2" y="1106" width="272" height="48" rx="3" stroke="#1E1E1E" stroke-width="4" stroke-linecap="round"/>
    <text id="participant_3" data-next="winner_2" x="113" y="1134" font-family="Arial" font-size="16" fill="black" text-anchor="middle">Команда 3</text>

<path d="M282 1130V1130C288.627 1130 294 1124.63 294 1118V1094C294 1087.37 299.373 1082 306 1082V1082" stroke="#1E1E1E" stroke-width="4" stroke-linecap="round" stroke-linejoin="bevel"/>
<rect x="626" y="1154" width="272" height="48" rx="3" fill="white"/>
<rect x="626" y="1154" width="272" height="48" rx="3" stroke="#1E1E1E" stroke-width="4" stroke-linecap="round"/>
    <text id="winner_8" data-next="winner_12" x="737" y="1184" font-family="Arial" font-size="16" fill="black" text-anchor="middle"></text>

<path d="M594 1082V1082C600.627 1082 606 1087.37 606 1094V1166C606 1172.63 611.373 1178 618 1178V1178" stroke="#1E1E1E" stroke-width="4" stroke-linecap="round" stroke-linejoin="bevel"/>
<path d="M594 1274V1274C600.627 1274 606 1268.63 606 1262V1190C606 1183.37 611.373 1178 618 1178V1178" stroke="#1E1E1E" stroke-width="4" stroke-linecap="round" stroke-linejoin="bevel"/>
<rect x="2" y="818" width="272" height="48" rx="3" fill="white"/>
<rect x="2" y="818" width="272" height="48" rx="3" stroke="#1E1E1E" stroke-width="4" stroke-linecap="round"/>
    <text id="participant_6" data-next="winner_3" x="113" y="846" font-family="Arial" font-size="16" fill="black" text-anchor="middle">Команда 6</text>

<rect x="314" y="866" width="272" height="48" rx="3" fill="white"/>
<rect x="314" y="866" width="272" height="48" rx="3" stroke="#1E1E1E" stroke-width="4" stroke-linecap="round"/>
    <text id="winner_3" data-next="winner_9" x="425" y="894" font-family="Arial" font-size="16" fill="black" text-anchor="middle"></text>

<path d="M282 842V842C288.627 842 294 847.373 294 854V878C294 884.627 299.373 890 306 890V890" stroke="#1E1E1E" stroke-width="4" stroke-linecap="round" stroke-linejoin="bevel"/>
<rect x="2" y="914" width="272" height="48" rx="3" fill="white"/>
<rect x="2" y="914" width="272" height="48" rx="3" stroke="#1E1E1E" stroke-width="4" stroke-linecap="round"/>
    <text id="participant_5" data-next="winner_3" x="113" y="942" font-family="Arial" font-size="16" fill="black" text-anchor="middle">Команда 5</text>

<path d="M282 938V938C288.627 938 294 932.627 294 926V902C294 895.373 299.373 890 306 890V890" stroke="#1E1E1E" stroke-width="4" stroke-linecap="round" stroke-linejoin="bevel"/>
<rect x="2" y="626" width="272" height="48" rx="3" fill="white"/>
<rect x="2" y="626" width="272" height="48" rx="3" stroke="#1E1E1E" stroke-width="4" stroke-linecap="round"/>
    <text id="participant_8" data-next="winner_4" x="113" y="654" font-family="Arial" font-size="16" fill="black" text-anchor="middle">Команда 8</text>

<rect x="314" y="674" width="272" height="48" rx="3" fill="white"/>
<rect x="314" y="674" width="272" height="48" rx="3" stroke="#1E1E1E" stroke-width="4" stroke-linecap="round"/>
    <text id="winner_4" data-next="winner_9" x="425" y="702" font-family="Arial" font-size="16" fill="black" text-anchor="middle"></text>

<path d="M282 650V650C288.627 650 294 655.373 294 662V686C294 692.627 299.373 698 306 698V698" stroke="#1E1E1E" stroke-width="4" stroke-linecap="round" stroke-linejoin="bevel"/>
<rect x="2" y="722" width="272" height="48" rx="3" fill="white"/>
<rect x="2" y="722" width="272" height="48" rx="3" stroke="#1E1E1E" stroke-width="4" stroke-linecap="round"/>
    <text id="participant_7" data-next="winner_4" x="113" y="750" font-family="Arial" font-size="16" fill="black" text-anchor="middle">Команда 7</text>

<path d="M282 746V746C288.627 746 294 740.627 294 734V710C294 703.373 299.373 698 306 698V698" stroke="#1E1E1E" stroke-width="4" stroke-linecap="round" stroke-linejoin="bevel"/>
<rect x="626" y="770" width="272" height="48" rx="3" fill="white"/>
<rect x="626" y="770" width="272" height="48" rx="3" stroke="#1E1E1E" stroke-width="4" stroke-linecap="round"/>
    <text id="winner_9" data-next="winner_12" x="737" y="798" font-family="Arial" font-size="16" fill="black" text-anchor="middle"></text>

<path d="M594 698V698C600.627 698 606 703.373 606 710V782C606 788.627 611.373 794 618 794V794" stroke="#1E1E1E" stroke-width="4" stroke-linecap="round" stroke-linejoin="bevel"/>
<path d="M594 890V890C600.627 890 606 884.627 606 878V806C606 799.373 611.373 794 618 794V794" stroke="#1E1E1E" stroke-width="4" stroke-linecap="round" stroke-linejoin="bevel"/>
<rect x="2" y="434" width="272" height="48" rx="3" fill="white"/>
<rect x="2" y="434" width="272" height="48" rx="3" stroke="#1E1E1E" stroke-width="4" stroke-linecap="round"/>
    <text id="participant_10" data-next="winner_5" x="113" y="462" font-family="Arial" font-size="16" fill="black" text-anchor="middle">Команда 10</text>

<rect x="314" y="482" width="272" height="48" rx="3" fill="white"/>
<rect x="314" y="482" width="272" height="48" rx="3" stroke="#1E1E1E" stroke-width="4" stroke-linecap="round"/>
    <text id="winner_5" data-next="winner_10" x="425" y="510" font-family="Arial" font-size="16" fill="black" text-anchor="middle"></text>

<path d="M282 458V458C288.627 458 294 463.373 294 470V494C294 500.627 299.373 506 306 506V506" stroke="#1E1E1E" stroke-width="4" stroke-linecap="round" stroke-linejoin="bevel"/>
<rect x="2" y="530" width="272" height="48" rx="3" fill="white"/>
<rect x="2" y="530" width="272" height="48" rx="3" stroke="#1E1E1E" stroke-width="4" stroke-linecap="round"/>
    <text id="participant_9" data-next="winner_5" x="113" y="558" font-family="Arial" font-size="16" fill="black" text-anchor="middle">Команда 9</text>

<path d="M282 554V554C288.627 554 294 548.627 294 542V518C294 511.373 299.373 506 306 506V506" stroke="#1E1E1E" stroke-width="4" stroke-linecap="round" stroke-linejoin="bevel"/>
<rect x="2" y="242" width="272" height="48" rx="3" fill="white"/>
<rect x="2" y="242" width="272" height="48" rx="3" stroke="#1E1E1E" stroke-width="4" stroke-linecap="round"/>
    <text id="participant_12" data-next="winner_6" x="113" y="270" font-family="Arial" font-size="16" fill="black" text-anchor="middle">Команда 12</text>

<rect x="314" y="290" width="272" height="48" rx="3" fill="white"/>
<rect x="314" y="290" width="272" height="48" rx="3" stroke="#1E1E1E" stroke-width="4" stroke-linecap="round"/>
    <text id="winner_6" data-next="winner_10" x="425" y="318" font-family="Arial" font-size="16" fill="black" text-anchor="middle"></text>

<path d="M282 266V266C288.627 266 294 271.373 294 278V302C294 308.627 299.373 314 306 314V314" stroke="#1E1E1E" stroke-width="4" stroke-linecap="round" stroke-linejoin="bevel"/>
<rect x="2" y="338" width="272" height="48" rx="3" fill="white"/>
<rect x="2" y="338" width="272" height="48" rx="3" stroke="#1E1E1E" stroke-width="4" stroke-linecap="round"/>
    <text id="participant_11" data-next="winner_6" x="113" y="366" font-family="Arial" font-size="16" fill="black" text-anchor="middle">Команда 11</text>

<path d="M282 362V362C288.627 362 294 356.627 294 350V326C294 319.373 299.373 314 306 314V314" stroke="#1E1E1E" stroke-width="4" stroke-linecap="round" stroke-linejoin="bevel"/>
<rect x="626" y="386" width="272" height="48" rx="3" fill="white"/>
<rect x="626" y="386" width="272" height="48" rx="3" stroke="#1E1E1E" stroke-width="4" stroke-linecap="round"/>
    <text id="winner_10" data-next="winner_13" x="737" y="414" font-family="Arial" font-size="16" fill="black" text-anchor="middle"></text>

<path d="M594 314V314C600.627 314 606 319.373 606 326V398C606 404.627 611.373 410 618 410V410" stroke="#1E1E1E" stroke-width="4" stroke-linecap="round" stroke-linejoin="bevel"/>
<path d="M594 506V506C600.627 506 606 500.627 606 494V422C606 415.373 611.373 410 618 410V410" stroke="#1E1E1E" stroke-width="4" stroke-linecap="round" stroke-linejoin="bevel"/>
<rect x="2" y="50" width="272" height="48" rx="3" fill="white"/>
<rect x="2" y="50" width="272" height="48" rx="3" stroke="#1E1E1E" stroke-width="4" stroke-linecap="round"/>
    <text id="participant_14" data-next="winner_7" x="113" y="78" font-family="Arial" font-size="16" fill="black" text-anchor="middle">Команда 14</text>

<rect x="314" y="98" width="272" height="48" rx="3" fill="white"/>
<rect x="314" y="98" width="272" height="48" rx="3" stroke="#1E1E1E" stroke-width="4" stroke-linecap="round"/>
    <text id="winner_7" data-next="winner_11" x="425" y="126" font-family="Arial" font-size="16" fill="black" text-anchor="middle"></text>

<path d="M282 74V74C288.627 74 294 79.3726 294 86V110C294 116.627 299.373 122 306 122V122" stroke="#1E1E1E" stroke-width="4" stroke-linecap="round" stroke-linejoin="bevel"/>
<rect x="2" y="146" width="272" height="48" rx="3" fill="white"/>
<rect x="2" y="146" width="272" height="48" rx="3" stroke="#1E1E1E" stroke-width="4" stroke-linecap="round"/>
    <text id="participant_13" data-next="winner_7" x="113" y="174" font-family="Arial" font-size="16" fill="black" text-anchor="middle">Команда 13</text>

<path d="M282 170V170C288.627 170 294 164.627 294 158V134C294 127.373 299.373 122 306 122V122" stroke="#1E1E1E" stroke-width="4" stroke-linecap="round" stroke-linejoin="bevel"/>
<rect x="314" y="2" width="272" height="48" rx="3" fill="white"/>
<rect x="314" y="2" width="272" height="48" rx="3" stroke="#1E1E1E" stroke-width="4" stroke-linecap="round"/>
    <text id="participant_15" data-next="winner_11" x="425" y="30" font-family="Arial" font-size="16" fill="black" text-anchor="middle">Команда 15</text>

<rect x="626" y="50" width="272" height="48" rx="3" fill="white"/>
<rect x="626" y="50" width="272" height="48" rx="3" stroke="#1E1E1E" stroke-width="4" stroke-linecap="round"/>
    <text id="winner_11" data-next="winner_13" x="737" y="78" font-family="Arial" font-size="16" fill="black" text-anchor="middle"></text>

<path d="M594 26V26C600.627 26 606 31.3726 606 38V62C606 68.6274 611.373 74 618 74V74" stroke="#1E1E1E" stroke-width="4" stroke-linecap="round" stroke-linejoin="bevel"/>
<path d="M594 122V122C600.627 122 606 116.627 606 110V86C606 79.3726 611.373 74 618 74V74" stroke="#1E1E1E" stroke-width="4" stroke-linecap="round" stroke-linejoin="bevel"/>
<rect x="946" y="218" width="272" height="48" rx="3" fill="white"/>
<rect x="946" y="218" width="272" height="48" rx="3" stroke="#1E1E1E" stroke-width="4" stroke-linecap="round"/>
    <text id="winner_13" data-next="final" x="1057" y="246" font-family="Arial" font-size="16" fill="black" text-anchor="middle"></text>

<path d="M906 74V74C914.837 74 922 81.1634 922 90V226C922 234.837 929.163 242 938 242V242" stroke="#1E1E1E" stroke-width="4" stroke-linecap="round" stroke-linejoin="bevel"/>
<path d="M906 410V410C914.837 410 922 402.837 922 394V258C922 249.163 929.163 242 938 242V242" stroke="#1E1E1E" stroke-width="4" stroke-linecap="round" stroke-linejoin="bevel"/>
<rect x="946" y="962" width="272" height="48" rx="3" fill="white"/>
<rect x="946" y="962" width="272" height="48" rx="3" stroke="#1E1E1E" stroke-width="4" stroke-linecap="round"/>
    <text id="winner_12" data-next="final" x="1057" y="990" font-family="Arial" font-size="16" fill="black" text-anchor="middle"></text>

<path d="M906 794V794C914.837 794 922 801.163 922 810V970C922 978.837 929.163 986 938 986V986" stroke="#1E1E1E" stroke-width="4" stroke-linecap="round" stroke-linejoin="bevel"/>
<path d="M906 1178V1178C914.837 1178 922 1170.84 922 1162V1002C922 993.163 929.163 986 938 986V986" stroke="#1E1E1E" stroke-width="4" stroke-linecap="round" stroke-linejoin="bevel"/>
<rect x="1274" y="578" width="272" height="48" rx="3" fill="white"/>
<rect x="1274" y="578" width="272" height="48" rx="3" stroke="#1E1E1E" stroke-width="4" stroke-linecap="round"/>
    <text id="final" x="1385" y="606" font-family="Arial" font-size="16" fill="black" text-anchor="middle"></text>

<path d="M1226 242V242C1237.05 242 1246 250.954 1246 262V582C1246 593.046 1254.95 602 1266 602V602" stroke="#1E1E1E" stroke-width="4" stroke-linecap="round" stroke-linejoin="bevel"/>
<path d="M1226 986V986C1237.05 986 1246 977.046 1246 966V622C1246 610.954 1254.95 602 1266 602V602" stroke="#1E1E1E" stroke-width="4" stroke-linecap="round" stroke-linejoin="bevel"/>
</svg>
