<svg width="1220" height="436" viewBox="0 0 1220 436" fill="none" xmlns="http://www.w3.org/2000/svg">
<rect x="2" y="50" width="272" height="48" rx="3" fill="white"/>
<rect x="2" y="50" width="272" height="48" rx="3" stroke="#1E1E1E" stroke-width="4" stroke-linecap="round"/>
    <text id="participant_1" data-next="winner_1" x="113" y="78" font-family="Arial" font-size="16" fill="black" text-anchor="middle">Команда 1</text>

<rect x="314" y="98" width="272" height="48" rx="3" fill="white"/>
<rect x="314" y="98" width="272" height="48" rx="3" stroke="#1E1E1E" stroke-width="4" stroke-linecap="round"/>
    <text id="winner_1" data-next="winner_3" x="425" y="126" font-family="Arial" font-size="16" fill="black" text-anchor="middle"></text>

<path d="M282 74V74C288.627 74 294 79.3726 294 86V110C294 116.627 299.373 122 306 122V122" stroke="#1E1E1E" stroke-width="4" stroke-linecap="round" stroke-linejoin="bevel"/>
<rect x="2" y="146" width="272" height="48" rx="3" fill="white"/>
<rect x="2" y="146" width="272" height="48" rx="3" stroke="#1E1E1E" stroke-width="4" stroke-linecap="round"/>
    <text id="participant_2" data-next="winner_1" x="113" y="174" font-family="Arial" font-size="16" fill="black" text-anchor="middle">Команда 2</text>

<path d="M282 170V170C288.627 170 294 164.627 294 158V134C294 127.373 299.373 122 306 122V122" stroke="#1E1E1E" stroke-width="4" stroke-linecap="round" stroke-linejoin="bevel"/>
<rect x="2" y="242" width="272" height="48" rx="3" fill="white"/>
<rect x="2" y="242" width="272" height="48" rx="3" stroke="#1E1E1E" stroke-width="4" stroke-linecap="round"/>
    <text id="participant_3" data-next="winner_2" x="113" y="270" font-family="Arial" font-size="16" fill="black" text-anchor="middle">Команда 3</text>

<rect x="314" y="290" width="272" height="48" rx="3" fill="white"/>
<rect x="314" y="290" width="272" height="48" rx="3" stroke="#1E1E1E" stroke-width="4" stroke-linecap="round"/>
    <text id="winner_2" data-next="winner_4" x="425" y="318" font-family="Arial" font-size="16" fill="black" text-anchor="middle"></text>

<path d="M282 266V266C288.627 266 294 271.373 294 278V302C294 308.627 299.373 314 306 314V314" stroke="#1E1E1E" stroke-width="4" stroke-linecap="round" stroke-linejoin="bevel"/>
<rect x="2" y="338" width="272" height="48" rx="3" fill="white"/>
<rect x="2" y="338" width="272" height="48" rx="3" stroke="#1E1E1E" stroke-width="4" stroke-linecap="round"/>
    <text id="participant_4" data-next="winner_2" x="113" y="364" font-family="Arial" font-size="16" fill="black" text-anchor="middle">Команда 4</text>

<path d="M282 362V362C288.627 362 294 356.627 294 350V326C294 319.373 299.373 314 306 314V314" stroke="#1E1E1E" stroke-width="4" stroke-linecap="round" stroke-linejoin="bevel"/>
<rect x="314" y="2" width="272" height="48" rx="3" fill="white"/>
<rect x="314" y="2" width="272" height="48" rx="3" stroke="#1E1E1E" stroke-width="4" stroke-linecap="round"/>
    <text id="participant_5" data-next="winner_3" x="425" y="30" font-family="Arial" font-size="16" fill="black" text-anchor="middle">Команда 5</text>

<rect x="314" y="386" width="272" height="48" rx="3" fill="white"/>
<rect x="314" y="386" width="272" height="48" rx="3" stroke="#1E1E1E" stroke-width="4" stroke-linecap="round"/>
    <text id="participant_6" data-next="winner_4" x="425" y="414" font-family="Arial" font-size="16" fill="black" text-anchor="middle">Команда 6</text>

<rect x="626" y="50" width="272" height="48" rx="3" fill="white"/>
<rect x="626" y="50" width="272" height="48" rx="3" stroke="#1E1E1E" stroke-width="4" stroke-linecap="round"/>
    <text id="winner_3" data-next="final" x="737" y="78" font-family="Arial" font-size="16" fill="black" text-anchor="middle"></text>

<path d="M594 122V122C600.627 122 606 116.627 606 110V86C606 79.3726 611.373 74 618 74V74" stroke="#1E1E1E" stroke-width="4" stroke-linecap="round" stroke-linejoin="bevel"/>
<path d="M594 26V26C600.627 26 606 31.3726 606 38V62C606 68.6274 611.373 74 618 74V74" stroke="#1E1E1E" stroke-width="4" stroke-linecap="round" stroke-linejoin="bevel"/>
<rect x="626" y="338" width="272" height="48" rx="3" fill="white"/>
<rect x="626" y="338" width="272" height="48" rx="3" stroke="#1E1E1E" stroke-width="4" stroke-linecap="round"/>
    <text id="winner_4" data-next="final" x="737" y="366" font-family="Arial" font-size="16" fill="black" text-anchor="middle"></text>

<path d="M618 362V362C611.373 362 606 367.373 606 374V398C606 404.627 600.627 410 594 410V410" stroke="#1E1E1E" stroke-width="4" stroke-linecap="round" stroke-linejoin="bevel"/>
<path d="M618 362V362C611.373 362 606 356.627 606 350V326C606 319.373 600.627 314 594 314V314" stroke="#1E1E1E" stroke-width="4" stroke-linecap="round" stroke-linejoin="bevel"/>
<rect x="946" y="194" width="272" height="48" rx="3" fill="white"/>
<rect x="946" y="194" width="272" height="48" rx="3" stroke="#1E1E1E" stroke-width="4" stroke-linecap="round"/>
    <text id="final" x="1057" y="222" font-family="Arial" font-size="16" fill="black" text-anchor="middle"></text>

<path d="M906 362V362C914.837 362 922 354.837 922 346V234C922 225.163 929.163 218 938 218V218" stroke="#1E1E1E" stroke-width="4" stroke-linecap="round" stroke-linejoin="bevel"/>
<path d="M906 74V74C914.837 74 922 81.1634 922 90V202C922 210.837 929.163 218 938 218V218" stroke="#1E1E1E" stroke-width="4" stroke-linecap="round" stroke-linejoin="bevel"/>
</svg>
