<svg width="1228" height="580" viewBox="0 0 1228 580" fill="none" xmlns="http://www.w3.org/2000/svg">
<rect x="2" y="2" width="272" height="48" rx="3" fill="white"/>
<rect x="2" y="2" width="272" height="48" rx="3" stroke="#1E1E1E" stroke-width="4" stroke-linecap="round"/>
    <text id="participant_1" data-next="winner_1" x="113" y="30" font-family="Arial" font-size="16" fill="black" text-anchor="middle">Команда 1</text>

<rect x="314" y="50" width="272" height="48" rx="3" fill="white"/>
<rect x="314" y="50" width="272" height="48" rx="3" stroke="#1E1E1E" stroke-width="4" stroke-linecap="round"/>
    <text id="winner_1" data-next="winner_4" x="425" y="78" font-family="Arial" font-size="16" fill="black" text-anchor="middle"></text>

<path d="M282 26V26C288.627 26 294 31.3726 294 38V62C294 68.6274 299.373 74 306 74V74" stroke="#1E1E1E" stroke-width="4" stroke-linecap="round" stroke-linejoin="bevel"/>
<rect x="2" y="98" width="272" height="48" rx="3" fill="white"/>
<rect x="2" y="98" width="272" height="48" rx="3" stroke="#1E1E1E" stroke-width="4" stroke-linecap="round"/>
    <text id="participant_2" data-next="winner_1" x="113" y="126" font-family="Arial" font-size="16" fill="black" text-anchor="middle">Команда 2</text>

<path d="M282 122V122C288.627 122 294 116.627 294 110V86C294 79.3726 299.373 74 306 74V74" stroke="#1E1E1E" stroke-width="4" stroke-linecap="round" stroke-linejoin="bevel"/>
<rect x="2" y="194" width="272" height="48" rx="3" fill="white"/>
<rect x="2" y="194" width="272" height="48" rx="3" stroke="#1E1E1E" stroke-width="4" stroke-linecap="round"/>
    <text id="participant_3" data-next="winner_2" x="113" y="222" font-family="Arial" font-size="16" fill="black" text-anchor="middle">Команда 3</text>

<rect x="314" y="242" width="272" height="48" rx="3" fill="white"/>
<rect x="314" y="242" width="272" height="48" rx="3" stroke="#1E1E1E" stroke-width="4" stroke-linecap="round"/>
    <text id="winner_2" data-next="winner_4" x="425" y="270" font-family="Arial" font-size="16" fill="black" text-anchor="middle"></text>

<path d="M282 218V218C288.627 218 294 223.373 294 230V254C294 260.627 299.373 266 306 266V266" stroke="#1E1E1E" stroke-width="4" stroke-linecap="round" stroke-linejoin="bevel"/>
<rect x="2" y="290" width="272" height="48" rx="3" fill="white"/>
<rect x="2" y="290" width="272" height="48" rx="3" stroke="#1E1E1E" stroke-width="4" stroke-linecap="round"/>
    <text id="participant_4" data-next="winner_2" x="113" y="318" font-family="Arial" font-size="16" fill="black" text-anchor="middle">Команда 4</text>

<path d="M282 314V314C288.627 314 294 308.627 294 302V278C294 271.373 299.373 266 306 266V266" stroke="#1E1E1E" stroke-width="4" stroke-linecap="round" stroke-linejoin="bevel"/>
<rect x="2" y="386" width="272" height="48" rx="3" fill="white"/>
<rect x="2" y="386" width="272" height="48" rx="3" stroke="#1E1E1E" stroke-width="4" stroke-linecap="round"/>
    <text id="participant_5" data-next="winner_3" x="113" y="414" font-family="Arial" font-size="16" fill="black" text-anchor="middle">Команда 5</text>

<rect x="314" y="434" width="272" height="48" rx="3" fill="white"/>
<rect x="314" y="434" width="272" height="48" rx="3" stroke="#1E1E1E" stroke-width="4" stroke-linecap="round"/>
    <text id="winner_3" data-next="winner_5" x="425" y="462" font-family="Arial" font-size="16" fill="black" text-anchor="middle"></text>

<path d="M282 410V410C288.627 410 294 415.373 294 422V446C294 452.627 299.373 458 306 458V458" stroke="#1E1E1E" stroke-width="4" stroke-linecap="round" stroke-linejoin="bevel"/>
<rect x="2" y="482" width="272" height="48" rx="3" fill="white"/>
<rect x="2" y="482" width="272" height="48" rx="3" stroke="#1E1E1E" stroke-width="4" stroke-linecap="round"/>
    <text id="participant_6" data-next="winner_3" x="113" y="510" font-family="Arial" font-size="16" fill="black" text-anchor="middle">Команда 6</text>

<path d="M282 506V506C288.627 506 294 500.627 294 494V470C294 463.373 299.373 458 306 458V458" stroke="#1E1E1E" stroke-width="4" stroke-linecap="round" stroke-linejoin="bevel"/>
<rect x="314" y="530" width="272" height="48" rx="3" fill="white"/>
<rect x="314" y="530" width="272" height="48" rx="3" stroke="#1E1E1E" stroke-width="4" stroke-linecap="round"/>
    <text id="participant_7" data-next="winner_5" x="425" y="558" font-family="Arial" font-size="16" fill="black" text-anchor="middle">Команда 7</text>

<rect x="626" y="146" width="272" height="48" rx="3" fill="white"/>
<rect x="626" y="146" width="272" height="48" rx="3" stroke="#1E1E1E" stroke-width="4" stroke-linecap="round"/>
    <text id="winner_4" data-next="final" x="737" y="174" font-family="Arial" font-size="16" fill="black" text-anchor="middle"></text>

<path d="M594 266V266C600.627 266 606 260.627 606 254V182C606 175.373 611.373 170 618 170V170" stroke="#1E1E1E" stroke-width="4" stroke-linecap="round" stroke-linejoin="bevel"/>
<path d="M594 74V74C600.627 74 606 79.3726 606 86V158C606 164.627 611.373 170 618 170V170" stroke="#1E1E1E" stroke-width="4" stroke-linecap="round" stroke-linejoin="bevel"/>
<rect x="626" y="482" width="272" height="48" rx="3" fill="white"/>
<rect x="626" y="482" width="272" height="48" rx="3" stroke="#1E1E1E" stroke-width="4" stroke-linecap="round"/>
    <text id="winner_5" data-next="final" x="737" y="510" font-family="Arial" font-size="16" fill="black" text-anchor="middle"></text>

<path d="M594 554V554C600.627 554 606 548.627 606 542V518C606 511.373 611.373 506 618 506V506" stroke="#1E1E1E" stroke-width="4" stroke-linecap="round" stroke-linejoin="bevel"/>
<path d="M594 458V458C600.627 458 606 463.373 606 470V494C606 500.627 611.373 506 618 506V506" stroke="#1E1E1E" stroke-width="4" stroke-linecap="round" stroke-linejoin="bevel"/>
<rect x="954" y="314" width="272" height="48" rx="3" fill="white"/>
<rect x="954" y="314" width="272" height="48" rx="3" stroke="#1E1E1E" stroke-width="4" stroke-linecap="round"/>
    <text id="final" x="1065" y="342" font-family="Arial" font-size="16" fill="black" text-anchor="middle"></text>

<path d="M906 506V506C917.046 506 926 497.046 926 486V358C926 346.954 934.954 338 946 338V338" stroke="#1E1E1E" stroke-width="4" stroke-linecap="round" stroke-linejoin="bevel"/>
<path d="M906 170V170C917.046 170 926 178.954 926 190V318C926 329.046 934.954 338 946 338V338" stroke="#1E1E1E" stroke-width="4" stroke-linecap="round" stroke-linejoin="bevel"/>
</svg>
