<svg width="1540" height="1252" viewBox="0 0 1540 1252" fill="none" xmlns="http://www.w3.org/2000/svg">
<rect x="2" y="1106" width="272" height="48" rx="3" fill="white"/>
<rect x="2" y="1106" width="272" height="48" rx="3" stroke="#1E1E1E" stroke-width="4" stroke-linecap="round"/>
    <text id="participant_2" data-next="winner_1" x="113" y="1134" font-family="Arial" font-size="16" fill="black" text-anchor="middle">Команда 2</text>

<rect x="314" y="1154" width="272" height="48" rx="3" fill="white"/>
<rect x="314" y="1154" width="272" height="48" rx="3" stroke="#1E1E1E" stroke-width="4" stroke-linecap="round"/>
    <text id="winner_1" data-next="winner_7" x="425" y="1182" font-family="Arial" font-size="16" fill="black" text-anchor="middle"></text>

<path d="M282 1130V1130C288.627 1130 294 1135.37 294 1142V1166C294 1172.63 299.373 1178 306 1178V1178" stroke="#1E1E1E" stroke-width="4" stroke-linecap="round" stroke-linejoin="bevel"/>
<rect x="2" y="1202" width="272" height="48" rx="3" fill="white"/>
<rect x="2" y="1202" width="272" height="48" rx="3" stroke="#1E1E1E" stroke-width="4" stroke-linecap="round"/>
    <text id="participant_1" data-next="winner_1" x="113" y="1230" font-family="Arial" font-size="16" fill="black" text-anchor="middle">Команда 1</text>

<path d="M282 1226V1226C288.627 1226 294 1220.63 294 1214V1190C294 1183.37 299.373 1178 306 1178V1178" stroke="#1E1E1E" stroke-width="4" stroke-linecap="round" stroke-linejoin="bevel"/>
<rect x="2" y="914" width="272" height="48" rx="3" fill="white"/>
<rect x="2" y="914" width="272" height="48" rx="3" stroke="#1E1E1E" stroke-width="4" stroke-linecap="round"/>
    <text id="participant_4" data-next="winner_2" x="113" y="942" font-family="Arial" font-size="16" fill="black" text-anchor="middle">Команда 4</text>

<rect x="314" y="962" width="272" height="48" rx="3" fill="white"/>
<rect x="314" y="962" width="272" height="48" rx="3" stroke="#1E1E1E" stroke-width="4" stroke-linecap="round"/>
    <text id="winner_2" data-next="winner_7" x="425" y="990" font-family="Arial" font-size="16" fill="black" text-anchor="middle"></text>

<path d="M282 938V938C288.627 938 294 943.373 294 950V974C294 980.627 299.373 986 306 986V986" stroke="#1E1E1E" stroke-width="4" stroke-linecap="round" stroke-linejoin="bevel"/>
<rect x="2" y="1010" width="272" height="48" rx="3" fill="white"/>
<rect x="2" y="1010" width="272" height="48" rx="3" stroke="#1E1E1E" stroke-width="4" stroke-linecap="round"/>
    <text id="participant_3" data-next="winner_2" x="113" y="1038" font-family="Arial" font-size="16" fill="black" text-anchor="middle">Команда 3</text>

<path d="M282 1034V1034C288.627 1034 294 1028.63 294 1022V998C294 991.373 299.373 986 306 986V986" stroke="#1E1E1E" stroke-width="4" stroke-linecap="round" stroke-linejoin="bevel"/>
<rect x="626" y="1058" width="272" height="48" rx="3" fill="white"/>
<rect x="626" y="1058" width="272" height="48" rx="3" stroke="#1E1E1E" stroke-width="4" stroke-linecap="round"/>
    <text id="winner_7" data-next="winner_11" x="737" y="1086" font-family="Arial" font-size="16" fill="black" text-anchor="middle"></text>

<path d="M594 986V986C600.627 986 606 991.373 606 998V1070C606 1076.63 611.373 1082 618 1082V1082" stroke="#1E1E1E" stroke-width="4" stroke-linecap="round" stroke-linejoin="bevel"/>
<path d="M594 1178V1178C600.627 1178 606 1172.63 606 1166V1094C606 1087.37 611.373 1082 618 1082V1082" stroke="#1E1E1E" stroke-width="4" stroke-linecap="round" stroke-linejoin="bevel"/>
<rect x="2" y="722" width="272" height="48" rx="3" fill="white"/>
<rect x="2" y="722" width="272" height="48" rx="3" stroke="#1E1E1E" stroke-width="4" stroke-linecap="round"/>
    <text id="participant_6" data-next="winner_3" x="113" y="750" font-family="Arial" font-size="16" fill="black" text-anchor="middle">Команда 6</text>

<rect x="314" y="770" width="272" height="48" rx="3" fill="white"/>
<rect x="314" y="770" width="272" height="48" rx="3" stroke="#1E1E1E" stroke-width="4" stroke-linecap="round"/>
    <text id="winner_3" data-next="winner_8" x="425" y="798" font-family="Arial" font-size="16" fill="black" text-anchor="middle"></text>

<path d="M282 746V746C288.627 746 294 751.373 294 758V782C294 788.627 299.373 794 306 794V794" stroke="#1E1E1E" stroke-width="4" stroke-linecap="round" stroke-linejoin="bevel"/>
<rect x="2" y="818" width="272" height="48" rx="3" fill="white"/>
<rect x="2" y="818" width="272" height="48" rx="3" stroke="#1E1E1E" stroke-width="4" stroke-linecap="round"/>
    <text id="participant_5" data-next="winner_3" x="113" y="846" font-family="Arial" font-size="16" fill="black" text-anchor="middle">Команда 5</text>

<path d="M282 842V842C288.627 842 294 836.627 294 830V806C294 799.373 299.373 794 306 794V794" stroke="#1E1E1E" stroke-width="4" stroke-linecap="round" stroke-linejoin="bevel"/>
<rect x="2" y="530" width="272" height="48" rx="3" fill="white"/>
<rect x="2" y="530" width="272" height="48" rx="3" stroke="#1E1E1E" stroke-width="4" stroke-linecap="round"/>
    <text id="participant_8" data-next="winner_4" x="113" y="568" font-family="Arial" font-size="16" fill="black" text-anchor="middle">Команда 8</text>

<rect x="314" y="578" width="272" height="48" rx="3" fill="white"/>
<rect x="314" y="578" width="272" height="48" rx="3" stroke="#1E1E1E" stroke-width="4" stroke-linecap="round"/>
    <text id="winner_4" data-next="winner_8" x="425" y="606" font-family="Arial" font-size="16" fill="black" text-anchor="middle"></text>

<path d="M282 554V554C288.627 554 294 559.373 294 566V590C294 596.627 299.373 602 306 602V602" stroke="#1E1E1E" stroke-width="4" stroke-linecap="round" stroke-linejoin="bevel"/>
<rect x="2" y="626" width="272" height="48" rx="3" fill="white"/>
<rect x="2" y="626" width="272" height="48" rx="3" stroke="#1E1E1E" stroke-width="4" stroke-linecap="round"/>
    <text id="participant_7" data-next="winner_4" x="113" y="654" font-family="Arial" font-size="16" fill="black" text-anchor="middle">Команда 7</text>

<path d="M282 650V650C288.627 650 294 644.627 294 638V614C294 607.373 299.373 602 306 602V602" stroke="#1E1E1E" stroke-width="4" stroke-linecap="round" stroke-linejoin="bevel"/>
<rect x="626" y="674" width="272" height="48" rx="3" fill="white"/>
<rect x="626" y="674" width="272" height="48" rx="3" stroke="#1E1E1E" stroke-width="4" stroke-linecap="round"/>
    <text id="winner_8" data-next="winner_11" x="737" y="702" font-family="Arial" font-size="16" fill="black" text-anchor="middle"></text>

<path d="M594 602V602C600.627 602 606 607.373 606 614V686C606 692.627 611.373 698 618 698V698" stroke="#1E1E1E" stroke-width="4" stroke-linecap="round" stroke-linejoin="bevel"/>
<path d="M594 794V794C600.627 794 606 788.627 606 782V710C606 703.373 611.373 698 618 698V698" stroke="#1E1E1E" stroke-width="4" stroke-linecap="round" stroke-linejoin="bevel"/>
<rect x="2" y="338" width="272" height="48" rx="3" fill="white"/>
<rect x="2" y="338" width="272" height="48" rx="3" stroke="#1E1E1E" stroke-width="4" stroke-linecap="round"/>
    <text id="participant_10" data-next="winner_5" x="113" y="366" font-family="Arial" font-size="16" fill="black" text-anchor="middle">Команда 10</text>

<rect x="314" y="386" width="272" height="48" rx="3" fill="white"/>
<rect x="314" y="386" width="272" height="48" rx="3" stroke="#1E1E1E" stroke-width="4" stroke-linecap="round"/>
    <text id="winner_5" data-next="winner_9" x="425" y="414" font-family="Arial" font-size="16" fill="black" text-anchor="middle"></text>

<path d="M282 362V362C288.627 362 294 367.373 294 374V398C294 404.627 299.373 410 306 410V410" stroke="#1E1E1E" stroke-width="4" stroke-linecap="round" stroke-linejoin="bevel"/>
<rect x="2" y="434" width="272" height="48" rx="3" fill="white"/>
<rect x="2" y="434" width="272" height="48" rx="3" stroke="#1E1E1E" stroke-width="4" stroke-linecap="round"/>
    <text id="participant_9" data-next="winner_5" x="113" y="462" font-family="Arial" font-size="16" fill="black" text-anchor="middle">Команда 9</text>

<path d="M282 458V458C288.627 458 294 452.627 294 446V422C294 415.373 299.373 410 306 410V410" stroke="#1E1E1E" stroke-width="4" stroke-linecap="round" stroke-linejoin="bevel"/>
<rect x="2" y="146" width="272" height="48" rx="3" fill="white"/>
<rect x="2" y="146" width="272" height="48" rx="3" stroke="#1E1E1E" stroke-width="4" stroke-linecap="round"/>
    <text id="participant_12" data-next="winner_6" x="113" y="174" font-family="Arial" font-size="16" fill="black" text-anchor="middle">Команда 12</text>

<rect x="314" y="194" width="272" height="48" rx="3" fill="white"/>
<rect x="314" y="194" width="272" height="48" rx="3" stroke="#1E1E1E" stroke-width="4" stroke-linecap="round"/>
    <text id="winner_6" data-next="winner_9" x="425" y="222" font-family="Arial" font-size="16" fill="black" text-anchor="middle"></text>

<path d="M282 170V170C288.627 170 294 175.373 294 182V206C294 212.627 299.373 218 306 218V218" stroke="#1E1E1E" stroke-width="4" stroke-linecap="round" stroke-linejoin="bevel"/>
<rect x="2" y="242" width="272" height="48" rx="3" fill="white"/>
<rect x="2" y="242" width="272" height="48" rx="3" stroke="#1E1E1E" stroke-width="4" stroke-linecap="round"/>
    <text id="participant_11" data-next="winner_6" x="113" y="270" font-family="Arial" font-size="16" fill="black" text-anchor="middle">Команда 11</text>

<path d="M282 266V266C288.627 266 294 260.627 294 254V230C294 223.373 299.373 218 306 218V218" stroke="#1E1E1E" stroke-width="4" stroke-linecap="round" stroke-linejoin="bevel"/>
<rect x="626" y="290" width="272" height="48" rx="3" fill="white"/>
<rect x="626" y="290" width="272" height="48" rx="3" stroke="#1E1E1E" stroke-width="4" stroke-linecap="round"/>
    <text id="winner_9" data-next="winner_12" x="737" y="318" font-family="Arial" font-size="16" fill="black" text-anchor="middle"></text>

<path d="M594 218V218C600.627 218 606 223.373 606 230V302C606 308.627 611.373 314 618 314V314" stroke="#1E1E1E" stroke-width="4" stroke-linecap="round" stroke-linejoin="bevel"/>
<path d="M594 410V410C600.627 410 606 404.627 606 398V326C606 319.373 611.373 314 618 314V314" stroke="#1E1E1E" stroke-width="4" stroke-linecap="round" stroke-linejoin="bevel"/>
<rect x="314" y="2" width="272" height="48" rx="3" fill="white"/>
<rect x="314" y="2" width="272" height="48" rx="3" stroke="#1E1E1E" stroke-width="4" stroke-linecap="round"/>
    <text id="participant_14" data-next="winner_10" x="425" y="30" font-family="Arial" font-size="16" fill="black" text-anchor="middle">Команда 14</text>

<rect x="626" y="50" width="272" height="48" rx="3" fill="white"/>
<rect x="626" y="50" width="272" height="48" rx="3" stroke="#1E1E1E" stroke-width="4" stroke-linecap="round"/>
    <text id="winner_10" data-next="winner_12" x="737" y="78" font-family="Arial" font-size="16" fill="black" text-anchor="middle"></text>

<path d="M594 26V26C600.627 26 606 31.3726 606 38V62C606 68.6274 611.373 74 618 74V74" stroke="#1E1E1E" stroke-width="4" stroke-linecap="round" stroke-linejoin="bevel"/>
<rect x="314" y="98" width="272" height="48" rx="3" fill="white"/>
<rect x="314" y="98" width="272" height="48" rx="3" stroke="#1E1E1E" stroke-width="4" stroke-linecap="round"/>
    <text id="participant_13" data-next="winner_10" x="425" y="126" font-family="Arial" font-size="16" fill="black" text-anchor="middle">Команда 13</text>

<path d="M594 122V122C600.627 122 606 116.627 606 110V86C606 79.3726 611.373 74 618 74V74" stroke="#1E1E1E" stroke-width="4" stroke-linecap="round" stroke-linejoin="bevel"/>
<rect x="946" y="170" width="272" height="48" rx="3" fill="white"/>
<rect x="946" y="170" width="272" height="48" rx="3" stroke="#1E1E1E" stroke-width="4" stroke-linecap="round"/>
    <text id="winner_12" data-next="final" x="1057" y="198" font-family="Arial" font-size="16" fill="black" text-anchor="middle"></text>

<path d="M906 74V74C914.837 74 922 81.1634 922 90V178C922 186.837 929.163 194 938 194V194" stroke="#1E1E1E" stroke-width="4" stroke-linecap="round" stroke-linejoin="bevel"/>
<path d="M906 314V314C914.837 314 922 306.837 922 298V210C922 201.163 929.163 194 938 194V194" stroke="#1E1E1E" stroke-width="4" stroke-linecap="round" stroke-linejoin="bevel"/>
<rect x="946" y="866" width="272" height="48" rx="3" fill="white"/>
<rect x="946" y="866" width="272" height="48" rx="3" stroke="#1E1E1E" stroke-width="4" stroke-linecap="round"/>
    <text id="winner_11" data-next="final" x="1057" y="894" font-family="Arial" font-size="16" fill="black" text-anchor="middle"></text>

<path d="M906 698V698C914.837 698 922 705.163 922 714V874C922 882.837 929.163 890 938 890V890" stroke="#1E1E1E" stroke-width="4" stroke-linecap="round" stroke-linejoin="bevel"/>
<path d="M906 1082V1082C914.837 1082 922 1074.84 922 1066V906C922 897.163 929.163 890 938 890V890" stroke="#1E1E1E" stroke-width="4" stroke-linecap="round" stroke-linejoin="bevel"/>
<rect x="1266" y="506" width="272" height="48" rx="3" fill="white"/>
<rect x="1266" y="506" width="272" height="48" rx="3" stroke="#1E1E1E" stroke-width="4" stroke-linecap="round"/>
    <text id="final" x="1377" y="534" font-family="Arial" font-size="16" fill="black" text-anchor="middle"></text>

<path d="M1226 194V194C1234.84 194 1242 201.163 1242 210V514C1242 522.837 1249.16 530 1258 530V530" stroke="#1E1E1E" stroke-width="4" stroke-linecap="round" stroke-linejoin="bevel"/>
<path d="M1226 890V890C1234.84 890 1242 882.837 1242 874V546C1242 537.163 1249.16 530 1258 530V530" stroke="#1E1E1E" stroke-width="4" stroke-linecap="round" stroke-linejoin="bevel"/>
</svg>
