<svg width="900" height="196" viewBox="0 0 900 196" fill="none" xmlns="http://www.w3.org/2000/svg">
<rect x="2" y="2" width="272" height="48" rx="3" fill="white"/>
<rect x="2" y="2" width="272" height="48" rx="3" stroke="#1E1E1E" stroke-width="4" stroke-linecap="round"/>
  <text id="participant_1" data-next="winner_1" x="113" y="30" font-family="Arial" font-size="16" fill="black" text-anchor="middle">Команда 1</text>

<rect x="314" y="50" width="272" height="48" rx="3" fill="white"/>
<rect x="314" y="50" width="272" height="48" rx="3" stroke="#1E1E1E" stroke-width="4" stroke-linecap="round"/>
  <text id="winner_1" data-next="final" x="425" y="78" font-family="Arial" font-size="16" fill="black" text-anchor="middle"></text>

<path d="M282 26V26C288.627 26 294 31.3726 294 38V62C294 68.6274 299.373 74 306 74V74" stroke="#1E1E1E" stroke-width="4" stroke-linecap="round" stroke-linejoin="bevel"/>
<rect x="2" y="98" width="272" height="48" rx="3" fill="white"/>
<rect x="2" y="98" width="272" height="48" rx="3" stroke="#1E1E1E" stroke-width="4" stroke-linecap="round"/>
  <text id="participant_2" data-next="winner_1" x="113" y="126" font-family="Arial" font-size="16" fill="black" text-anchor="middle">Команда 2</text>

<path d="M282 122V122C288.627 122 294 116.627 294 110V86C294 79.3726 299.373 74 306 74V74" stroke="#1E1E1E" stroke-width="4" stroke-linecap="round" stroke-linejoin="bevel"/>
<rect x="314" y="146" width="272" height="48" rx="3" fill="white"/>
<rect x="314" y="146" width="272" height="48" rx="3" stroke="#1E1E1E" stroke-width="4" stroke-linecap="round"/>
  <text id="participant_3" data-next="final" x="425" y="174" font-family="Arial" font-size="16" fill="black" text-anchor="middle">Команда 3</text>

<rect x="626" y="98" width="272" height="48" rx="3" fill="white"/>
<rect x="626" y="98" width="272" height="48" rx="3" stroke="#1E1E1E" stroke-width="4" stroke-linecap="round"/>
  <text id="final" x="737" y="126" font-family="Arial" font-size="16" fill="black" text-anchor="middle"></text>

<path d="M594 170V170C600.627 170 606 164.627 606 158V134C606 127.373 611.373 122 618 122V122" stroke="#1E1E1E" stroke-width="4" stroke-linecap="round" stroke-linejoin="bevel"/>
<path d="M594 74V74C600.627 74 606 79.3726 606 86V110C606 116.627 611.373 122 618 122V122" stroke="#1E1E1E" stroke-width="4" stroke-linecap="round" stroke-linejoin="bevel"/>
</svg>
